<svg xmlns="http://www.w3.org/2000/svg" >
  <g id='insta'>
    <path opacity="0.1" fill-rule="evenodd" clip-rule="evenodd" d="M0 16C0 7.16344 7.16344 0 16 0C24.8366 0 32 7.16344 32 16C32 24.8366 24.8366 32 16 32C7.16344 32 0 24.8366 0 16Z" fill="#515251"/>
    <path fill-rule="evenodd" clip-rule="evenodd" d="M16.0007 7.46655C13.6832 7.46655 13.3923 7.47669 12.4821 7.51811C11.5736 7.55971 10.9535 7.70353 10.4109 7.91456C9.84969 8.13252 9.37359 8.42407 8.89928 8.89857C8.42461 9.37288 8.13305 9.84898 7.91438 10.41C7.70282 10.9528 7.55882 11.5731 7.51793 12.4812C7.47722 13.3914 7.46655 13.6824 7.46655 16C7.46655 18.3175 7.47686 18.6075 7.51811 19.5177C7.55989 20.4262 7.70371 21.0462 7.91456 21.5888C8.13269 22.1501 8.42425 22.6262 8.89875 23.1005C9.37288 23.5752 9.84898 23.8674 10.4099 24.0854C10.9528 24.2964 11.5731 24.4402 12.4814 24.4818C13.3916 24.5233 13.6823 24.5334 15.9996 24.5334C18.3173 24.5334 18.6073 24.5233 19.5175 24.4818C20.426 24.4402 21.0468 24.2964 21.5897 24.0854C22.1508 23.8674 22.6262 23.5752 23.1003 23.1005C23.575 22.6262 23.8665 22.1501 24.0852 21.589C24.295 21.0462 24.439 20.426 24.4817 19.5179C24.5226 18.6076 24.5332 18.3175 24.5332 16C24.5332 13.6824 24.5226 13.3916 24.4817 12.4814C24.439 11.5729 24.295 10.9528 24.0852 10.4102C23.8665 9.84898 23.575 9.37288 23.1003 8.89857C22.6256 8.4239 22.151 8.13234 21.5892 7.91456C21.0452 7.70353 20.4247 7.55971 19.5163 7.51811C18.606 7.47669 18.3163 7.46655 15.998 7.46655H16.0007ZM15.2351 9.00432C15.4623 9.00397 15.7158 9.00432 16.0006 9.00432C18.2791 9.00432 18.5491 9.0125 19.4489 9.05339C20.2809 9.09143 20.7324 9.23046 21.0332 9.34726C21.4315 9.50193 21.7154 9.68682 22.0139 9.98549C22.3125 10.2842 22.4974 10.5686 22.6525 10.9668C22.7693 11.2673 22.9085 11.7188 22.9463 12.5508C22.9872 13.4504 22.9961 13.7206 22.9961 15.998C22.9961 18.2754 22.9872 18.5456 22.9463 19.4451C22.9083 20.2772 22.7693 20.7287 22.6525 21.0292C22.4978 21.4274 22.3125 21.7109 22.0139 22.0094C21.7152 22.3081 21.4316 22.493 21.0332 22.6477C20.7328 22.765 20.2809 22.9037 19.4489 22.9417C18.5493 22.9826 18.2791 22.9915 16.0006 22.9915C13.722 22.9915 13.452 22.9826 12.5524 22.9417C11.7204 22.9033 11.2689 22.7643 10.9679 22.6475C10.5697 22.4928 10.2852 22.3079 9.98654 22.0093C9.68787 21.7106 9.50298 21.4269 9.34796 21.0284C9.23116 20.728 9.09196 20.2764 9.05409 19.4444C9.0132 18.5449 9.00502 18.2746 9.00502 15.9959C9.00502 13.7171 9.0132 13.4483 9.05409 12.5487C9.09213 11.7167 9.23116 11.2651 9.34796 10.9643C9.50263 10.5661 9.68787 10.2817 9.98654 9.983C10.2852 9.68433 10.5697 9.49944 10.9679 9.34441C11.2687 9.22708 11.7204 9.08841 12.5524 9.05019C13.3396 9.01463 13.6447 9.00397 15.2351 9.00219V9.00432ZM20.5557 10.4212C19.9904 10.4212 19.5317 10.8794 19.5317 11.4449C19.5317 12.0102 19.9904 12.4689 20.5557 12.4689C21.1211 12.4689 21.5797 12.0102 21.5797 11.4449C21.5797 10.8795 21.1211 10.4212 20.5557 10.4212ZM16.0007 11.6177C13.5806 11.6177 11.6184 13.5798 11.6184 16C11.6184 18.4201 13.5806 20.3813 16.0007 20.3813C18.4208 20.3813 20.3823 18.4201 20.3823 16C20.3823 13.5798 18.4208 11.6177 16.0007 11.6177ZM16.0007 13.1555C17.5715 13.1555 18.8451 14.4289 18.8451 16C18.8451 17.5708 17.5715 18.8444 16.0007 18.8444C14.4296 18.8444 13.1562 17.5708 13.1562 16C13.1562 14.4289 14.4296 13.1555 16.0007 13.1555Z" fill="#515251"/>
  </g>
  <g id='twitter'>
    <path opacity="0.1" fill-rule="evenodd" clip-rule="evenodd" d="M0 16C0 7.16344 7.16344 0 16 0C24.8366 0 32 7.16344 32 16C32 24.8366 24.8366 32 16 32C7.16344 32 0 24.8366 0 16Z" fill="#515251"/>
    <path fill-rule="evenodd" clip-rule="evenodd" d="M15.5208 13.0051L15.5544 13.5587L14.9948 13.4909C12.9579 13.2311 11.1784 12.3498 9.66756 10.8696L8.92891 10.1352L8.73865 10.6776C8.33575 11.8865 8.59316 13.1633 9.43253 14.022C9.8802 14.4965 9.77948 14.5643 9.00725 14.2819C8.73865 14.1915 8.50363 14.1237 8.48124 14.1576C8.4029 14.2367 8.6715 15.2648 8.88414 15.6716C9.17513 16.2365 9.76828 16.7902 10.4174 17.1178L10.9658 17.3777L10.3167 17.389C9.68994 17.389 9.66756 17.4003 9.73471 17.6376C9.95854 18.372 10.8427 19.1516 11.8276 19.4906L12.5214 19.7278L11.9171 20.0894C11.0218 20.6091 9.96973 20.9029 8.91772 20.9255C8.41409 20.9368 8 20.982 8 21.0159C8 21.1289 9.36538 21.7616 10.16 22.0102C12.5438 22.7446 15.3753 22.4282 17.5017 21.1741C19.0126 20.2815 20.5235 18.5076 21.2286 16.7902C21.6091 15.875 21.9896 14.2028 21.9896 13.4006C21.9896 12.8808 22.0232 12.813 22.6499 12.1916C23.0192 11.83 23.3662 11.4346 23.4333 11.3216C23.5452 11.1069 23.534 11.1069 22.9633 11.299C22.012 11.638 21.8777 11.5928 22.3477 11.0843C22.6947 10.7228 23.1088 10.0674 23.1088 9.87536C23.1088 9.84146 22.9409 9.89796 22.7506 9.99964C22.5492 10.1126 22.1015 10.2821 21.7658 10.3838L21.1614 10.5759L20.613 10.203C20.3108 9.99964 19.8856 9.77367 19.6617 9.70588C19.0909 9.5477 18.218 9.57029 17.7032 9.75107C16.3042 10.2595 15.4201 11.5702 15.5208 13.0051Z" fill="#515251"/>
  </g>
  <g id='linkedin'>
    <circle cx="16" cy="16" r="16" fill="#515251"/>
    <path d="M32 16C32 24.8366 24.8366 32 16 32C7.16344 32 0 24.8366 0 16C0 7.16344 7.16344 0 16 0C24.8366 0 32 7.16344 32 16ZM5.58736 16C5.58736 21.7507 10.2493 26.4126 16 26.4126C21.7507 26.4126 26.4126 21.7507 26.4126 16C26.4126 10.2493 21.7507 5.58736 16 5.58736C10.2493 5.58736 5.58736 10.2493 5.58736 16Z" fill="#F2F1F1"/>
    <path d="M16 4C9.3736 4 4 9.3736 4 16C4 22.6264 9.3736 28 16 28C22.6264 28 28 22.6264 28 16C28 9.3736 22.6264 4 16 4ZM12.5129 22.1406H9.59039V13.3481H12.5129V22.1406ZM11.0518 12.1475H11.0327C10.052 12.1475 9.41772 11.4724 9.41772 10.6286C9.41772 9.76581 10.0714 9.10938 11.0712 9.10938C12.0709 9.10938 12.6862 9.76581 12.7052 10.6286C12.7052 11.4724 12.0709 12.1475 11.0518 12.1475ZM23.051 22.1406H20.1288V17.4368C20.1288 16.2547 19.7057 15.4485 18.6483 15.4485C17.8409 15.4485 17.3601 15.9923 17.1488 16.5173C17.0715 16.7051 17.0527 16.9677 17.0527 17.2305V22.1406H14.1303C14.1303 22.1406 14.1686 14.173 14.1303 13.3481H17.0527V14.593C17.441 13.9939 18.1359 13.1417 19.6865 13.1417C21.6093 13.1417 23.051 14.3984 23.051 17.099V22.1406Z" fill="#F2F1F1"/>
  </g>
  <g id='fb'>
      <circle cx="16" cy="16" r="16" fill="#515251"/>
      <path d="M32 16C32 24.8366 24.8366 32 16 32C7.16344 32 0 24.8366 0 16C0 7.16344 7.16344 0 16 0C24.8366 0 32 7.16344 32 16ZM5.84688 16C5.84688 21.6074 10.3926 26.1531 16 26.1531C21.6074 26.1531 26.1531 21.6074 26.1531 16C26.1531 10.3926 21.6074 5.84688 16 5.84688C10.3926 5.84688 5.84688 10.3926 5.84688 16Z" fill="#F2F1F1"/>
      <path d="M16 4C9.37256 4 4 9.37256 4 16C4 22.6274 9.37256 28 16 28C22.6274 28 28 22.6274 28 16C28 9.37256 22.6274 4 16 4ZM20.578 10.1111L18.9183 10.1118C17.6168 10.1118 17.3651 10.7303 17.3651 11.6378V13.6388H20.4688L20.4673 16.7729H17.3654V24.8158H14.1281V16.7729H11.422V13.6388H14.1281V11.3274C14.1281 8.64507 15.767 7.1842 18.1596 7.1842L20.5783 7.18789V10.1111H20.578Z" fill="#F2F1F1"/>
  </g>
  <g id='dashboard'>
  <!-- width="21" height="20" viewBox="0 0 21 20" -->
      <path d="M20.3677 7.25959C20.2906 7.4859 20.2329 7.72183 20.1317 7.92887C19.7225 8.74259 19.0532 9.20001 18.148 9.21927C16.5543 9.24816 14.9605 9.24334 13.3716 9.22408C12.1679 9.20964 11.1712 8.20813 11.1567 7.00922C11.1375 5.41548 11.1375 3.82174 11.1567 2.228C11.1712 1.02908 12.1727 0.027575 13.3716 0.0131303C14.9653 -0.00612944 16.5591 -0.00131451 18.148 0.0131303C19.1976 0.0227601 20.0836 0.783518 20.3195 1.82354C20.3292 1.87651 20.3532 1.92466 20.3725 1.97762C20.3677 3.73507 20.3677 5.49733 20.3677 7.25959Z" fill="currentColor"/>
      <path d="M2.35512 19.9902C2.22512 19.9517 2.09993 19.918 1.96993 19.8747C1.06472 19.5809 0.400263 18.7239 0.390633 17.7657C0.376188 16.172 0.371373 14.5782 0.390633 12.9845C0.405077 11.7856 1.40658 10.7841 2.6055 10.7696C4.19924 10.7504 5.79298 10.7504 7.3819 10.7696C8.58564 10.7841 9.58233 11.7808 9.59677 12.9845C9.61603 14.5782 9.61603 16.172 9.59677 17.7657C9.58714 18.8154 8.81675 19.7158 7.78636 19.9373C7.73339 19.9469 7.68525 19.971 7.63228 19.9854C5.87483 19.9902 4.11739 19.9902 2.35512 19.9902Z" fill="currentColor"/>
      <path d="M15.2783 19.9905C14.792 19.8461 14.2816 19.7546 13.8194 19.5523C11.9512 18.7194 10.9112 16.7501 11.2 14.6748C11.4697 12.744 13.0779 11.1262 15.0279 10.8229C17.5991 10.4232 19.9825 12.1951 20.3243 14.7663C20.3291 14.8096 20.3532 14.853 20.3677 14.9011C20.3677 15.2237 20.3677 15.5415 20.3677 15.8641C20.3532 15.9074 20.334 15.9508 20.3243 15.9989C20.0017 17.9201 18.9136 19.1864 17.0694 19.8027C16.7998 19.8942 16.5157 19.9327 16.2365 20.0001C15.9187 19.9905 15.5961 19.9905 15.2783 19.9905Z" fill="currentColor"/>
      <path d="M9.6064 4.64039C9.6064 5.37707 9.61121 6.11375 9.6064 6.85044C9.60158 8.23714 8.61452 9.2242 7.22782 9.22901C5.74001 9.23383 4.2522 9.23383 2.75957 9.22901C1.3825 9.2242 0.390628 8.23232 0.385813 6.85044C0.380998 5.36263 0.380998 3.87 0.385813 2.38218C0.390628 0.995486 1.3825 0.0036112 2.76439 0.0036112C4.2522 -0.00120373 5.74001 -0.00120373 7.23264 0.0036112C8.61452 0.00842612 9.6064 0.995486 9.61121 2.38218C9.61121 3.13331 9.6064 3.88444 9.6064 4.64039Z" fill="currentColor"/>
  </g>
  <g id='wallet'>
    <path d="M10.023 1C10.1521 1 10.2851 1 10.4142 1C11.0872 1.1448 11.4511 1.58703 11.6311 2.22494C11.7133 2.51846 11.8424 2.79632 11.9363 3.08984C11.9793 3.2229 12.042 3.26595 12.1867 3.26595C13.3449 3.25812 14.5031 3.26203 15.6613 3.26203C16.569 3.26203 17.1325 3.8295 17.1325 4.73744C17.1325 5.17968 17.1325 5.61799 17.1325 6.06023C17.1677 6.06805 17.1834 6.07588 17.2029 6.07979C18.4198 6.22068 19.2024 7.0934 19.2024 8.31443C19.2024 8.9993 19.2024 9.68026 19.2024 10.3651C19.2024 10.4356 19.2024 10.5021 19.2024 10.5647C19.2454 10.5804 19.261 10.5921 19.2806 10.596C19.9888 10.7839 20.3723 11.2809 20.3762 12.0127C20.3762 13.0224 20.3801 14.0282 20.3762 15.0379C20.3723 15.6993 19.9575 16.2237 19.3197 16.3881C19.2845 16.3959 19.2493 16.4116 19.218 16.4194C19.2102 16.4429 19.2063 16.4585 19.2063 16.4703C19.2063 17.2334 19.2102 17.9927 19.2024 18.7558C19.2024 18.9476 19.1867 19.1472 19.1437 19.335C18.9089 20.329 18.0637 20.9943 17.0308 20.9983C12.2024 21.0022 7.374 20.9983 2.54953 20.9983C2.51822 20.9983 2.48301 20.9983 2.45171 20.9943C1.6848 20.9435 1.07832 20.603 0.690953 19.9377C0.542267 19.6872 0.479662 19.3937 0.37793 19.1237C0.37793 15.4019 0.37793 11.6762 0.37793 7.95439C0.389668 7.91916 0.405319 7.88394 0.413145 7.84481C0.604871 6.95252 1.14092 6.38896 2.01739 6.1385C2.13477 6.10719 2.25607 6.09153 2.38519 6.06414C2.30302 5.84107 2.22868 5.63365 2.15434 5.42623C1.84523 4.57699 2.18564 3.84515 3.03471 3.53598C5.36282 2.69066 7.69484 1.84533 10.023 1ZM18.0285 10.5647C18.0285 9.78201 18.0285 9.0267 18.0285 8.27138C18.0285 7.65696 17.6177 7.24603 16.9955 7.24603C12.1906 7.24603 7.38965 7.24603 2.58474 7.24603C1.95478 7.24603 1.55177 7.65304 1.55177 8.28312C1.55177 11.7779 1.55177 15.2727 1.55177 18.7714C1.55177 19.4133 1.9587 19.8242 2.60039 19.8242C7.39747 19.8242 12.1946 19.8242 16.9916 19.8242C17.6177 19.8242 18.0324 19.4133 18.0324 18.7871C18.0324 18.0592 18.0324 17.3273 18.0324 16.5994C18.0324 16.5446 18.0246 16.4898 18.0207 16.4272C17.4299 16.4272 16.8547 16.4311 16.2834 16.4272C16.0291 16.4272 15.7748 16.4272 15.5243 16.3959C14.1392 16.2276 13.0671 15.0966 12.9615 13.7151C12.8597 12.3258 13.7479 11.0539 15.0978 10.6821C15.3756 10.6078 15.673 10.5804 15.9626 10.5726C16.6395 10.5569 17.3242 10.5647 18.0285 10.5647ZM9.12693 6.07588C9.12693 5.57103 9.12301 5.08966 9.12693 4.6083C9.13475 3.96647 9.5769 3.43032 10.2029 3.29726C10.3712 3.26203 10.5512 3.26203 10.7507 3.24247C10.6294 2.91764 10.5238 2.59282 10.3868 2.27973C10.3634 2.22886 10.2186 2.18972 10.1442 2.20537C9.98774 2.23668 9.83905 2.30713 9.68645 2.36583C7.60485 3.12115 5.52325 3.88038 3.44164 4.63569C3.19905 4.7257 3.17166 4.78441 3.26165 5.03096C3.36339 5.31274 3.47686 5.5906 3.56685 5.87238C3.61381 6.025 3.68815 6.07979 3.85249 6.07979C5.5389 6.07197 7.2214 6.07588 8.90781 6.07588C8.9665 6.07588 9.03302 6.07588 9.12693 6.07588ZM17.3673 11.7388C16.8782 11.7388 16.393 11.7349 15.9039 11.7388C14.9061 11.7505 14.1314 12.5137 14.1275 13.4842C14.1236 14.4626 14.9022 15.2453 15.9039 15.2532C16.9055 15.261 17.9072 15.2571 18.9089 15.2532C19.1398 15.2532 19.2024 15.1945 19.2024 14.9675C19.2024 13.9852 19.2024 13.0029 19.2024 12.0206C19.2024 11.7897 19.1476 11.7388 18.9089 11.7388C18.3924 11.7388 17.8798 11.7388 17.3673 11.7388ZM15.9587 6.07197C15.9587 5.57494 15.9626 5.09749 15.9547 4.61612C15.9508 4.47132 15.8374 4.43219 15.7043 4.43219C13.9866 4.43219 12.2728 4.43219 10.5551 4.43219C10.3751 4.43219 10.2929 4.51046 10.2968 4.69048C10.3008 5.00748 10.2968 5.32839 10.2968 5.64539C10.2968 5.78628 10.2968 5.92325 10.2968 6.06805C12.1946 6.07197 14.061 6.07197 15.9587 6.07197Z" fill="currentColor" stroke="currentColor" stroke-width="0.4"/>
    <path d="M15.8831 13.5834C15.8699 13.5824 15.8492 13.5756 15.8287 13.5548C15.8066 13.5324 15.8005 13.5096 15.8005 13.4962C15.8005 13.4771 15.8082 13.4562 15.8268 13.438C15.8455 13.4198 15.8673 13.4122 15.8874 13.4127L15.8994 12.9128C16.2165 12.9207 16.4749 13.1869 16.471 13.508M15.8831 13.5834L15.8871 13.4127C15.9068 13.4132 15.9279 13.4216 15.9455 13.4398C15.962 13.457 15.9703 13.4774 15.971 13.4983M15.8831 13.5834C15.8985 13.5825 15.9203 13.5752 15.9412 13.5548C15.9622 13.5344 15.9698 13.5131 15.971 13.4983M15.8831 13.5834L15.971 13.4983M16.471 13.508L15.9711 13.4955C15.9711 13.4964 15.971 13.4973 15.971 13.4983M16.471 13.508L15.971 13.5019C15.971 13.5007 15.971 13.4995 15.971 13.4983M16.471 13.508L15.971 13.4983" fill="currentColor" stroke="currentColor"/>
  <!-- width="21" height="22" viewBox="0 0 21 22" -->
  </g>
  <g id='empMgt'>

    <svg width="21" height="20" viewBox="0 0 21 20" fill="none" xmlns="http://www.w3.org/2000/svg">
    <path d="M15.3779 6.25V8.75M15.3779 8.75V11.25M15.3779 8.75H17.8779M15.3779 8.75H12.8779M11.0029 5.3125C11.0029 6.8658 9.74373 8.125 8.19043 8.125C6.63713 8.125 5.37793 6.8658 5.37793 5.3125C5.37793 3.7592 6.63713 2.5 8.19043 2.5C9.74373 2.5 11.0029 3.7592 11.0029 5.3125ZM2.8787 16.0286C2.87819 15.9983 2.87793 15.9679 2.87793 15.9375C2.87793 13.0035 5.25642 10.625 8.19043 10.625C11.1244 10.625 13.5029 13.0035 13.5029 15.9375V15.9396C13.5029 15.9693 13.5027 15.999 13.5022 16.0286C11.9507 16.9627 10.1333 17.5 8.19043 17.5C6.24753 17.5 4.43013 16.9627 2.8787 16.0286Z" stroke="currentColor" stroke-width="1.6" stroke-linecap="round" stroke-linejoin="round"/>
    </svg>


  </g>
  <g id='payroll'>
    <g clip-path="url(#clip0_2098_2965)">
    <path d="M13.5094 17.0472C9.63485 17.0472 5.757 17.0472 1.88247 17.0472C1.8625 17.0373 1.84253 17.0273 1.82256 17.0207C0.927154 16.8488 0.37793 16.2039 0.37793 15.311C0.37793 10.8302 0.37793 6.34598 0.37793 1.86511C0.37793 0.849882 1.09359 0.145508 2.11548 0.145508C4.61195 0.148815 7.10842 0.162042 9.6049 0.165349C10.0143 0.165349 10.3538 0.307547 10.6468 0.591942C11.9316 1.83534 13.2198 3.07544 14.5146 4.30892C14.8242 4.60324 14.964 4.94054 14.964 5.36383C14.9573 7.66875 14.9607 9.97368 14.9607 12.2786C14.9607 13.2971 14.964 14.3124 14.9607 15.3309C14.9573 16.1113 14.518 16.7429 13.8256 16.9645C13.7224 16.9943 13.6159 17.0174 13.5094 17.0472ZM9.24873 1.49473C9.1755 1.49142 9.12224 1.48481 9.06899 1.48481C6.78887 1.4782 4.50543 1.46828 2.22532 1.46166C1.7926 1.46166 1.70605 1.54764 1.70605 1.96762C1.70605 6.37575 1.70605 10.7806 1.70605 15.1887C1.70605 15.2449 1.70605 15.2978 1.70605 15.354C1.71271 15.5591 1.84918 15.7013 2.05889 15.7178C2.10882 15.7211 2.15875 15.7178 2.20868 15.7178C5.86351 15.7178 9.51835 15.7178 13.1732 15.7178C13.5393 15.7178 13.6325 15.6219 13.6325 15.2581C13.6325 12.1265 13.6325 8.99814 13.6325 5.86648C13.6325 5.80696 13.6325 5.75074 13.6325 5.68129C13.546 5.68129 13.4861 5.68129 13.4262 5.68129C12.6106 5.68129 11.7985 5.68129 10.9829 5.68129C9.96439 5.67799 9.24873 4.967 9.2454 3.95839C9.24207 3.1978 9.2454 2.44051 9.2454 1.67992C9.24873 1.62701 9.24873 1.56748 9.24873 1.49473ZM10.5769 2.36115C10.5769 2.92332 10.5769 3.4392 10.5769 3.95508C10.5769 4.23617 10.7067 4.36514 10.9929 4.36514C11.5022 4.36845 12.0115 4.36514 12.5208 4.36514C12.5541 4.36514 12.5873 4.35522 12.6439 4.3453C11.9549 3.68391 11.2859 3.04237 10.5769 2.36115Z" fill="#515251"/>
    <path d="M7.6696 13.8505C9.05142 13.8505 10.4294 13.8505 11.8112 13.8505C12.3041 13.8505 12.6457 13.5111 12.6302 13.0522C12.6185 12.7206 12.3779 12.4198 12.0518 12.3427C11.9587 12.3196 11.8616 12.3118 11.7646 12.3118C9.03589 12.3118 6.3072 12.3118 3.5785 12.3118C3.12824 12.3118 2.82549 12.5355 2.73621 12.925C2.63529 13.353 2.95358 13.7965 3.39219 13.8428C3.48146 13.8505 3.57073 13.8505 3.66389 13.8505C4.99913 13.8505 6.33437 13.8505 7.6696 13.8505Z" fill="#515251"/>
  <path d="M6.66873 10.7731C7.72062 10.7731 8.77251 10.7769 9.82439 10.7692C10.4066 10.7654 10.7831 10.2139 10.5541 9.70492C10.4027 9.36557 10.1233 9.23061 9.76229 9.23061C8.77639 9.23061 7.7866 9.23061 6.8007 9.23061C5.72164 9.23061 4.64647 9.23061 3.56741 9.23061C3.15985 9.23061 2.86485 9.42727 2.75229 9.75891C2.58539 10.2602 2.94637 10.7615 3.49366 10.7654C4.40969 10.7731 5.32573 10.7692 6.24177 10.7692C6.38538 10.7731 6.529 10.7731 6.66873 10.7731Z" fill="currentColor"/>
    <path d="M5.67489 7.69209C6.40461 7.69209 7.13045 7.69595 7.86017 7.68823C8.20951 7.68438 8.4851 7.45301 8.57437 7.11752C8.65976 6.80902 8.54332 6.46582 8.25997 6.29615C8.128 6.21903 7.96109 6.15733 7.80971 6.15733C6.37744 6.14576 4.94516 6.14961 3.51677 6.15347C3.09369 6.15347 2.77928 6.43112 2.72106 6.82445C2.66672 7.18307 2.89961 7.54555 3.26447 7.65353C3.36539 7.68438 3.48184 7.68823 3.59052 7.68823C4.28531 7.69595 4.9801 7.69209 5.67489 7.69209Z" fill="currentColor"/>
</g>
<defs>
<clipPath id="clip0_2098_2965">
<rect width="17.0126" height="19.709" fill="white" transform="translate(0.37793 0.145508)"/>
</clipPath>
</defs>
  <!--  -->
  </g>
  <g id='compliance'>
    <svg width="21" height="20" viewBox="0 0 21 20" fill="none" xmlns="http://www.w3.org/2000/svg">
    <path d="M9.83587 3.19683C9.78195 3.37168 9.75293 3.55745 9.75293 3.75C9.75293 4.09518 10.0328 4.375 10.3779 4.375H14.1279C14.4731 4.375 14.7529 4.09518 14.7529 3.75C14.7529 3.55745 14.7239 3.37168 14.67 3.19683M9.83587 3.19683C10.0719 2.43131 10.7849 1.875 11.6279 1.875H12.8779C13.7209 1.875 14.434 2.43131 14.67 3.19683M9.83587 3.19683C9.52282 3.21548 9.21074 3.23774 8.89967 3.26356C7.95709 3.34179 7.25293 4.14437 7.25293 5.09018V6.875M14.67 3.19683C14.983 3.21548 15.2951 3.23774 15.6062 3.26356C16.5488 3.34179 17.2529 4.14436 17.2529 5.09018V13.75C17.2529 14.7855 16.4135 15.625 15.3779 15.625H13.5029M7.25293 6.875H4.44043C3.92266 6.875 3.50293 7.29473 3.50293 7.8125V17.1875C3.50293 17.7053 3.92266 18.125 4.44043 18.125H12.5654C13.0832 18.125 13.5029 17.7053 13.5029 17.1875V15.625M7.25293 6.875H12.5654C13.0832 6.875 13.5029 7.29473 13.5029 7.8125V15.625M6.62793 13.125L7.87793 14.375L10.3779 11.25" stroke="currentColor" stroke-width="1.3" stroke-linecap="round" stroke-linejoin="round"/>
</svg>

    <!--  -->
  </g>
  <g id='loan'>
    <g clip-path="url(#clip0_2098_2928)">
    <path d="M12.2494 0.338623C12.675 0.422078 13.109 0.476324 13.5262 0.597334C16.009 1.29836 17.8659 3.49322 18.1705 6.05529C18.5628 9.3768 16.4931 12.4146 13.2884 13.2199C9.69983 14.1212 6.01947 11.7344 5.37686 8.08742C4.81771 4.93282 6.46595 1.93679 9.42443 0.785107C9.95437 0.580643 10.5344 0.509706 11.0935 0.376178C11.1478 0.36366 11.202 0.351141 11.2521 0.338623C11.5817 0.338623 11.9156 0.338623 12.2494 0.338623ZM16.9729 6.86898C16.9646 3.93971 14.6153 1.57793 11.7194 1.59045C8.84025 1.59879 6.49933 3.98561 6.50768 6.89402C6.51602 9.80242 8.8778 12.1725 11.757 12.1642C14.632 12.1559 16.9813 9.77321 16.9729 6.86898Z" fill="currentColor"/>
    <path d="M2.99425 15.5273C3.03597 15.3562 3.06101 15.206 3.11108 15.0641C3.399 14.2504 4.0124 13.8498 4.83026 13.6662C6.22395 13.3533 7.55089 13.4951 8.83192 14.1503C9.29093 14.3839 9.77497 14.5884 10.2674 14.7553C10.5636 14.8555 10.8891 14.893 11.2062 14.9055C11.8363 14.9264 12.4706 14.9097 13.1006 14.9139C13.5597 14.9139 13.8058 15.1684 13.7933 15.6274C13.7766 16.2492 13.5805 16.8083 13.205 17.3549C13.5138 17.3549 13.7933 17.3633 14.0687 17.3508C14.123 17.3466 14.1772 17.2715 14.2273 17.2214C14.8115 16.6372 15.3915 16.0489 15.9798 15.473C17.119 14.3589 18.9091 14.3255 20.0942 15.3896C20.4697 15.7276 20.4822 16.0906 20.1276 16.4453C18.6671 17.9099 17.2025 19.3704 15.742 20.8308C15.1787 21.3942 14.4985 21.6696 13.7057 21.6696C9.50791 21.6696 5.31012 21.6696 1.11233 21.6696C0.615777 21.6612 0.37793 21.4234 0.37793 20.931C0.37793 19.3704 0.37793 17.8098 0.37793 16.245C0.37793 15.7568 0.611604 15.5273 1.10816 15.5273C1.7299 15.5231 2.35581 15.5273 2.99425 15.5273ZM4.25442 20.4136C4.35456 20.4136 4.42967 20.4136 4.50478 20.4136C7.54254 20.4136 10.5845 20.4094 13.6222 20.4177C14.1313 20.4177 14.5486 20.2508 14.9075 19.8878C16.1509 18.636 17.3986 17.3925 18.6462 16.1448C18.688 16.1031 18.7213 16.0572 18.7714 16.003C18.7213 15.9821 18.6921 15.9612 18.6588 15.9529C17.9536 15.7317 17.3318 15.8778 16.8019 16.3994C16.1718 17.0253 15.5375 17.647 14.92 18.2855C14.6988 18.5108 14.461 18.6109 14.148 18.6068C12.1993 18.5984 10.2465 18.5984 8.29781 18.5984C8.0391 18.5984 7.78456 18.6026 7.52585 18.5901C7.28383 18.5775 7.10858 18.444 7.00843 18.227C6.91246 18.0142 6.93332 17.8056 7.07102 17.6136C7.21707 17.405 7.42988 17.3424 7.6719 17.3424C8.59408 17.3466 9.51626 17.3466 10.4426 17.3466C10.622 17.3466 10.8056 17.3466 10.9809 17.3299C11.6193 17.259 12.2494 16.7415 12.408 16.1532C12.0283 16.1532 11.6569 16.149 11.2855 16.1532C10.6971 16.1615 10.1213 16.0697 9.57885 15.8444C9.07812 15.6399 8.58156 15.4271 8.09752 15.1851C7.05851 14.6719 5.99445 14.6385 4.89702 14.9389C4.44636 15.0599 4.25442 15.3186 4.25442 15.7818C4.25442 16.8834 4.25442 17.9892 4.25442 19.0908C4.25442 19.5248 4.25442 19.9546 4.25442 20.4136ZM2.99425 20.401C2.99425 19.1868 2.99425 17.9892 2.99425 16.7874C2.53524 16.7874 2.09293 16.7874 1.6381 16.7874C1.6381 17.9975 1.6381 19.1951 1.6381 20.401C2.09293 20.401 2.53524 20.401 2.99425 20.401Z" fill="currentColor"/>
    <g clip-path="url(#clip1_2098_2928)">
    <path d="M12.7684 5.00518C12.7684 4.84415 12.7723 4.68272 12.7684 4.52168C12.7653 4.43647 12.7973 4.41341 12.8783 4.41459C13.1077 4.41888 13.3375 4.42045 13.5666 4.41459C13.6643 4.41185 13.692 4.44468 13.6905 4.53966C13.6854 4.84219 13.6932 5.14511 13.6866 5.44803C13.6842 5.55904 13.7104 5.60438 13.8312 5.59969C14.0946 5.59343 14.095 5.59969 14.095 5.87095C14.095 6.03198 14.0915 6.19341 14.095 6.35445C14.0974 6.43262 14.0766 6.46389 13.9903 6.46545C13.6877 6.47171 13.6877 6.47562 13.6877 6.78557C13.6877 6.93684 13.6916 7.08849 13.6877 7.23976C13.685 7.32262 13.7131 7.34763 13.796 7.35037C14.095 7.35897 14.095 7.3621 14.095 7.65876C14.095 7.81003 14.0915 7.96168 14.095 8.11295C14.0978 8.19503 14.0704 8.22044 13.9867 8.222C13.6873 8.22825 13.6877 8.23177 13.6877 8.53039C13.6877 8.75983 13.6842 8.98966 13.6877 9.2187C13.6877 9.30938 13.6576 9.33596 13.5705 9.33401C13.3168 9.32893 13.0624 9.32854 12.8087 9.33401C12.773 9.33747 12.7371 9.32992 12.7058 9.31239C12.6745 9.29485 12.6493 9.26816 12.6336 9.2359C12.4522 8.93494 12.263 8.63866 12.0832 8.33691C12.0332 8.25249 11.9797 8.21457 11.8765 8.21653C11.5298 8.22395 11.1831 8.22239 10.8364 8.21653C10.7402 8.21653 10.7121 8.24428 10.714 8.33965C10.7199 8.62772 10.7117 8.91578 10.7183 9.20385C10.7207 9.3086 10.6867 9.33675 10.5854 9.33323C10.3658 9.32619 10.1457 9.32463 9.92644 9.33323C9.81114 9.33831 9.7873 9.29414 9.78925 9.19056C9.79551 8.91227 9.78651 8.63397 9.79355 8.35567C9.79629 8.24858 9.76932 8.21223 9.65636 8.21496C9.39643 8.22122 9.39604 8.21496 9.39604 7.95817C9.39604 7.78736 9.39917 7.61616 9.39604 7.44535C9.39604 7.36718 9.42301 7.34724 9.49767 7.34451C9.79277 7.33278 9.79277 7.33005 9.79277 7.03182C9.79277 6.88055 9.78847 6.7289 9.79277 6.57763C9.7959 6.49008 9.76893 6.46037 9.67785 6.46037C9.39604 6.45764 9.39604 6.45373 9.39604 6.16644C9.39604 6.01518 9.40073 5.86352 9.39604 5.71226C9.39213 5.62314 9.42027 5.595 9.51095 5.595C9.79355 5.5907 9.79355 5.5864 9.79355 5.29638C9.79355 5.04231 9.79629 4.78825 9.79355 4.53458C9.79355 4.44898 9.81466 4.41263 9.90846 4.41498C10.1574 4.42084 10.4064 4.42006 10.6554 4.41498C10.6889 4.41229 10.7225 4.41991 10.7515 4.43682C10.7806 4.45372 10.8038 4.47911 10.818 4.50956C11.0134 4.83555 11.2175 5.15762 11.4129 5.48438C11.4606 5.56255 11.511 5.60164 11.6083 5.60164C11.955 5.59539 12.3017 5.59617 12.6484 5.60164C12.7438 5.60164 12.777 5.57389 12.7727 5.47696C12.7653 5.32061 12.7727 5.16426 12.7727 5.00792L12.7684 5.00518ZM12.0121 6.46311C12.1939 6.75977 12.3604 7.03299 12.5292 7.30503C12.5757 7.37968 12.6535 7.34646 12.7172 7.34412C12.7954 7.34099 12.7665 7.2722 12.7669 7.22959C12.7696 7.00993 12.7669 6.79026 12.7669 6.5706C12.7669 6.51744 12.777 6.46115 12.6914 6.46233C12.4753 6.46506 12.2576 6.46311 12.0121 6.46311ZM11.4676 7.34724L10.9501 6.50845C10.9032 6.43223 10.827 6.4635 10.7641 6.46623C10.6859 6.47014 10.7179 6.53933 10.7176 6.58076C10.7144 6.80003 10.7176 7.01931 10.7176 7.23858C10.7176 7.29018 10.7035 7.3492 10.7906 7.34802C11.0064 7.34568 11.2233 7.34724 11.4676 7.34724Z" fill="currentColor"/>
    </g>
    </g>
    <defs>
    <clipPath id="clip0_2098_2928">
    <rect width="20" height="21.3228" fill="white" transform="translate(0.37793 0.338623)"/>
    </clipPath>
    <clipPath id="clip1_2098_2928">
    <rect width="4.70054" height="4.92138" fill="white" transform="translate(9.39319 4.41388)"/>
    </clipPath>
    </defs>
  <!--  -->
  </g>
  <g id='bk'>
    <path d="M18.0196 1.71669C17.4223 1.6138 16.8174 1.56084 16.2113 1.55835C14.1433 1.55666 12.1184 2.14966 10.378 3.26669C8.63308 2.16433 6.6085 1.58588 4.54463 1.60002C3.9385 1.6025 3.33363 1.65546 2.73629 1.75835C2.54063 1.79209 2.36344 1.89457 2.23664 2.04735C2.10983 2.20013 2.04174 2.39316 2.04463 2.59169V12.5917C2.04284 12.7141 2.06806 12.8355 2.1185 12.9471C2.16894 13.0586 2.24335 13.1577 2.33644 13.2373C2.42953 13.3169 2.53901 13.3749 2.65709 13.4074C2.77517 13.4398 2.89895 13.4458 3.01963 13.425C4.21381 13.2183 5.43729 13.2526 6.61801 13.5259C7.79874 13.7993 8.91281 14.3061 9.89463 15.0167L9.99463 15.075H10.0863C10.1787 15.1135 10.2778 15.1334 10.378 15.1334C10.4781 15.1334 10.5772 15.1135 10.6696 15.075H10.7613L10.8613 15.0167C11.8363 14.2903 12.9471 13.767 14.1281 13.4778C15.309 13.1887 16.536 13.1395 17.7363 13.3334C17.857 13.3542 17.9807 13.3482 18.0988 13.3157C18.2169 13.2833 18.3264 13.2252 18.4195 13.1456C18.5126 13.0661 18.587 12.967 18.6374 12.8554C18.6879 12.7438 18.7131 12.6225 18.7113 12.5V2.50002C18.7026 2.31015 18.6293 2.12895 18.5035 1.98647C18.3777 1.84399 18.207 1.7488 18.0196 1.71669ZM9.54463 12.7917C8.00286 11.9806 6.28672 11.5573 4.54463 11.5584C4.26963 11.5584 3.99463 11.5584 3.71129 11.5584V3.22502C3.98884 3.20902 4.26708 3.20902 4.54463 3.22502C6.32245 3.22305 8.06147 3.74476 9.54463 4.72502V12.7917ZM17.0446 11.5917C16.7613 11.5917 16.4863 11.5917 16.2113 11.5917C14.4692 11.5906 12.7531 12.0139 11.2113 12.825V4.72502C12.6944 3.74476 14.4335 3.22305 16.2113 3.22502C16.4888 3.20902 16.7671 3.20902 17.0446 3.22502V11.5917ZM18.0196 15.05C17.4223 14.9471 16.8174 14.8942 16.2113 14.8917C14.1433 14.89 12.1184 15.483 10.378 16.6C8.63756 15.483 6.61266 14.89 4.54463 14.8917C3.9385 14.8942 3.33363 14.9471 2.73629 15.05C2.62782 15.0672 2.52381 15.1057 2.43026 15.1633C2.33671 15.2208 2.25546 15.2963 2.19118 15.3854C2.1269 15.4744 2.08086 15.5753 2.05571 15.6822C2.03056 15.7891 2.02679 15.9 2.04463 16.0084C2.08698 16.2248 2.21337 16.4156 2.39612 16.5389C2.57887 16.6623 2.80308 16.7083 3.01963 16.6667C4.21381 16.4599 5.43729 16.4942 6.61801 16.7676C7.79874 17.0409 8.91281 17.5478 9.89463 18.2584C10.0358 18.3588 10.2047 18.4128 10.378 18.4128C10.5512 18.4128 10.7202 18.3588 10.8613 18.2584C11.8431 17.5478 12.9572 17.0409 14.1379 16.7676C15.3186 16.4942 16.5421 16.4599 17.7363 16.6667C17.9528 16.7083 18.177 16.6623 18.3598 16.5389C18.5426 16.4156 18.6689 16.2248 18.7113 16.0084C18.7291 15.9 18.7254 15.7891 18.7002 15.6822C18.6751 15.5753 18.629 15.4744 18.5647 15.3854C18.5005 15.2963 18.4192 15.2208 18.3257 15.1633C18.2321 15.1057 18.1281 15.0672 18.0196 15.05Z" fill="currentColor"/>
    <!--  -->
  </g>
  <g id='support'>
      <path d="M16.578 10.8334C16.3946 10.8334 16.203 10.775 16.0196 10.7334C15.6484 10.6516 15.2835 10.5429 14.928 10.4084C14.5414 10.2677 14.1164 10.275 13.7349 10.4289C13.3533 10.5827 13.0422 10.8722 12.8613 11.2417L12.678 11.6167C11.8663 11.1652 11.1204 10.6044 10.4613 9.95003C9.80693 9.29088 9.24614 8.54503 8.79462 7.73337L9.14462 7.50003C9.51409 7.31913 9.8036 7.00797 9.95745 6.62644C10.1113 6.24491 10.1186 5.81996 9.97795 5.43337C9.84564 5.07705 9.73707 4.71236 9.65295 4.3417C9.61129 4.15837 9.57795 3.9667 9.55295 3.77503C9.45176 3.18805 9.14431 2.65648 8.68597 2.27607C8.22763 1.89565 7.64853 1.69137 7.05295 1.70003H4.55295C4.19381 1.69666 3.83816 1.77071 3.51021 1.91714C3.18226 2.06357 2.88971 2.27895 2.65248 2.5486C2.41524 2.81826 2.2389 3.13586 2.13544 3.47979C2.03199 3.82373 2.00385 4.18591 2.05295 4.5417C2.4969 8.03285 4.09131 11.2766 6.58433 13.7606C9.07735 16.2445 12.3269 17.8271 15.8196 18.2584H16.1363C16.7508 18.2593 17.3441 18.0338 17.803 17.625C18.0666 17.3892 18.2772 17.1002 18.4208 16.777C18.5645 16.4537 18.6379 16.1037 18.6363 15.75V13.25C18.6261 12.6712 18.4153 12.1138 18.0399 11.6731C17.6645 11.2323 17.1478 10.9356 16.578 10.8334ZM16.9946 15.8334C16.9945 15.9517 16.9691 16.0686 16.9203 16.1764C16.8714 16.2841 16.8002 16.3803 16.7113 16.4584C16.6182 16.5388 16.5093 16.5988 16.3916 16.6347C16.2739 16.6706 16.1501 16.6815 16.028 16.6667C12.907 16.2665 10.0081 14.8388 7.78855 12.6086C5.56895 10.3784 4.15496 7.47281 3.76962 4.35003C3.75636 4.22796 3.76798 4.10447 3.80379 3.98703C3.8396 3.86958 3.89884 3.76061 3.97795 3.6667C4.05604 3.57781 4.15217 3.50657 4.25993 3.45771C4.3677 3.40886 4.48463 3.38352 4.60295 3.38337H7.10295C7.29674 3.37905 7.48597 3.44243 7.63807 3.56259C7.79017 3.68275 7.89563 3.85217 7.93629 4.0417C7.96962 4.26948 8.01129 4.49448 8.06129 4.7167C8.15755 5.15599 8.28567 5.58768 8.44462 6.00837L7.27795 6.55003C7.1782 6.5958 7.08847 6.66082 7.01392 6.74136C6.93936 6.8219 6.88145 6.91638 6.84351 7.01936C6.80557 7.12235 6.78835 7.23181 6.79283 7.34147C6.79731 7.45113 6.8234 7.55882 6.86962 7.65837C8.06895 10.2273 10.134 12.2924 12.703 13.4917C12.9058 13.575 13.1334 13.575 13.3363 13.4917C13.4402 13.4545 13.5357 13.3971 13.6173 13.3227C13.6988 13.2483 13.7648 13.1585 13.8113 13.0584L14.328 11.8917C14.7588 12.0458 15.1984 12.1738 15.6446 12.275C15.8668 12.325 16.0918 12.3667 16.3196 12.4C16.5091 12.4407 16.6786 12.5461 16.7987 12.6982C16.9189 12.8503 16.9823 13.0396 16.978 13.2334L16.9946 15.8334Z" fill="currentColor"/>
      <!--  -->
  </g>
  <g id='setting'>
    <path d="M8.08626 18.3334L7.75293 15.6667C7.57237 15.5972 7.4021 15.5139 7.2421 15.4167C7.0821 15.3195 6.92599 15.2153 6.77376 15.1042L4.2946 16.1459L2.00293 12.1875L4.14876 10.5625C4.13487 10.4653 4.12793 10.3714 4.12793 10.2809V9.71919C4.12793 9.62863 4.13487 9.53474 4.14876 9.43752L2.00293 7.81252L4.2946 3.85419L6.77376 4.89585C6.92654 4.78474 7.08626 4.68058 7.25293 4.58335C7.4196 4.48613 7.58626 4.4028 7.75293 4.33335L8.08626 1.66669H12.6696L13.0029 4.33335C13.1835 4.4028 13.3538 4.48613 13.5138 4.58335C13.6738 4.68058 13.8299 4.78474 13.9821 4.89585L16.4613 3.85419L18.7529 7.81252L16.6071 9.43752C16.621 9.53474 16.6279 9.62863 16.6279 9.71919V10.2809C16.6279 10.3714 16.614 10.4653 16.5863 10.5625L18.7321 12.1875L16.4404 16.1459L13.9821 15.1042C13.8293 15.2153 13.6696 15.3195 13.5029 15.4167C13.3363 15.5139 13.1696 15.5972 13.0029 15.6667L12.6696 18.3334H8.08626ZM10.4196 12.9167C11.2252 12.9167 11.9127 12.632 12.4821 12.0625C13.0515 11.4931 13.3363 10.8056 13.3363 10C13.3363 9.19446 13.0515 8.50696 12.4821 7.93752C11.9127 7.36808 11.2252 7.08335 10.4196 7.08335C9.60015 7.08335 8.90904 7.36808 8.34626 7.93752C7.78349 8.50696 7.50237 9.19446 7.50293 10C7.50293 10.8056 7.78404 11.4931 8.34626 12.0625C8.90849 12.632 9.5996 12.9167 10.4196 12.9167ZM10.4196 11.25C10.0724 11.25 9.7771 11.1284 9.53376 10.885C9.29043 10.6417 9.16904 10.3467 9.1696 10C9.1696 9.6528 9.29126 9.35752 9.5346 9.11419C9.77793 8.87085 10.0729 8.74946 10.4196 8.75002C10.7668 8.75002 11.0621 8.87169 11.3054 9.11502C11.5488 9.35835 11.6702 9.65335 11.6696 10C11.6696 10.3472 11.5479 10.6425 11.3046 10.8859C11.0613 11.1292 10.7663 11.2506 10.4196 11.25ZM9.5446 16.6667H11.1904L11.4821 14.4584C11.9127 14.3472 12.3121 14.1839 12.6804 13.9684C13.0488 13.7528 13.3854 13.4925 13.6904 13.1875L15.7529 14.0417L16.5654 12.625L14.7738 11.2709C14.8432 11.0764 14.8918 10.8717 14.9196 10.6567C14.9474 10.4417 14.9613 10.2228 14.9613 10C14.9613 9.7778 14.9474 9.55919 14.9196 9.34419C14.8918 9.12919 14.8432 8.92419 14.7738 8.72919L16.5654 7.37502L15.7529 5.95835L13.6904 6.83335C13.3849 6.51391 13.0482 6.24669 12.6804 6.03169C12.3127 5.81669 11.9132 5.65335 11.4821 5.54169L11.2113 3.33335H9.56543L9.27376 5.54169C8.84321 5.6528 8.44404 5.81613 8.07626 6.03169C7.70849 6.24724 7.37154 6.50752 7.06543 6.81252L5.00293 5.95835L4.19043 7.37502L5.9821 8.70835C5.91265 8.91669 5.86404 9.12502 5.83626 9.33335C5.80849 9.54169 5.7946 9.76391 5.7946 10C5.7946 10.2222 5.80849 10.4375 5.83626 10.6459C5.86404 10.8542 5.91265 11.0625 5.9821 11.2709L4.19043 12.625L5.00293 14.0417L7.06543 13.1667C7.37099 13.4861 7.70793 13.7536 8.07626 13.9692C8.4446 14.1847 8.84376 14.3478 9.27376 14.4584L9.5446 16.6667Z" fill="currentColor"/>
    <!--  -->
  </g>
  <g id='salary'>
    <svg width="23" height="16" viewBox="0 0 23 16" fill="none" xmlns="http://www.w3.org/2000/svg">
    <g clip-path="url(#clip0_1_1269)">
    <path d="M0.646988 14.0407C0.646988 10.1758 0.646988 6.31578 0.646988 2.45083C0.656924 2.43593 0.666859 2.42103 0.671827 2.40612C0.825829 1.5616 1.7101 0.930685 2.7583 1.18901C5.67441 1.91431 8.58057 1.80502 11.4569 0.915782C14.7854 -0.117522 18.1386 -0.21191 21.5167 0.667391C22.401 0.89591 22.858 1.47218 22.858 2.37632C22.858 5.96804 22.858 9.55479 22.858 13.1465C22.858 13.221 22.858 13.2956 22.8531 13.3701C22.8034 14.3289 21.9241 15.0144 20.9802 14.8405C20.245 14.7014 19.5097 14.5325 18.7646 14.4431C16.4893 14.1699 14.2488 14.3885 12.063 15.0691C8.6849 16.1222 5.28195 16.2117 1.8641 15.2777C1.4468 15.1634 1.11396 14.9399 0.89041 14.5673C0.791054 14.4083 0.726473 14.2196 0.646988 14.0407ZM2.23669 2.734C2.23172 2.79858 2.22675 2.86316 2.22675 2.92774C2.22675 6.46979 2.23172 10.0069 2.23172 13.5489C2.23172 13.6979 2.27146 13.7625 2.42049 13.8023C3.6227 14.1152 4.84478 14.2941 6.08673 14.3388C8.06392 14.4083 9.97652 14.0656 11.8643 13.4943C14.3581 12.7342 16.9016 12.5653 19.4799 12.9478C20.0761 13.0372 20.6623 13.1614 21.2733 13.2707C21.2733 12.759 21.2733 12.2473 21.2733 11.7406C21.2733 8.66059 21.2733 5.58552 21.2733 2.50548C21.2733 2.37632 21.2981 2.25709 21.1094 2.20741C19.937 1.90437 18.7497 1.7156 17.5425 1.67089C15.5951 1.59637 13.6974 1.8845 11.8345 2.46077C9.26613 3.25065 6.65306 3.44936 3.99529 3.05194C3.41405 2.96252 2.83282 2.83832 2.23669 2.734Z" fill="#11453B"/>
    <path d="M17.6966 4.83059C17.319 4.83059 16.9365 4.83556 16.5589 4.83059C16.077 4.82562 15.7193 4.49275 15.7193 4.04064C15.7193 3.58854 16.0671 3.2507 16.5539 3.24573C17.324 3.24076 18.0891 3.24076 18.8592 3.24573C19.3361 3.2507 19.6938 3.5935 19.6889 4.04561C19.6839 4.48778 19.3361 4.82065 18.8691 4.82562C18.4717 4.83556 18.0841 4.83059 17.6966 4.83059Z" fill="#11453B"/>
    <path d="M5.80375 12.7543C5.42617 12.7543 5.04362 12.7593 4.66603 12.7543C4.17915 12.7493 3.82641 12.4165 3.82144 11.9693C3.81647 11.5172 4.16921 11.1744 4.65113 11.1694C5.4212 11.1645 6.18631 11.1645 6.95638 11.1694C7.43829 11.1694 7.79104 11.5172 7.78607 11.9643C7.7811 12.4115 7.42836 12.7444 6.94644 12.7493C6.56389 12.7543 6.18134 12.7543 5.80375 12.7543Z" fill="#11453B"/>
    <g clip-path="url(#clip1_1_1269)">
    <path d="M13.0272 5.78042C13.0272 5.58014 13.032 5.37938 13.0272 5.1791C13.0233 5.07313 13.0631 5.04445 13.1638 5.04591C13.4491 5.05126 13.7349 5.0532 14.0198 5.04591C14.1413 5.04251 14.1758 5.08334 14.1739 5.20146C14.1676 5.57771 14.1773 5.95444 14.169 6.33117C14.1661 6.46923 14.1987 6.52562 14.3489 6.51978C14.6765 6.51201 14.677 6.51978 14.677 6.85714C14.677 7.05742 14.6726 7.25818 14.677 7.45845C14.6799 7.55568 14.6542 7.59456 14.5467 7.59651C14.1705 7.60429 14.1705 7.60915 14.1705 7.99463C14.1705 8.18275 14.1754 8.37136 14.1705 8.55948C14.1671 8.66254 14.2021 8.69365 14.3051 8.69705C14.677 8.70775 14.677 8.71163 14.677 9.08059C14.677 9.26871 14.6726 9.45732 14.677 9.64544C14.6804 9.74753 14.6464 9.77912 14.5424 9.78107C14.17 9.78885 14.1705 9.79322 14.1705 10.1646C14.1705 10.4499 14.1661 10.7358 14.1705 11.0206C14.1705 11.1334 14.1331 11.1665 14.0247 11.164C13.7092 11.1577 13.3927 11.1572 13.0772 11.164C13.0328 11.1683 12.9882 11.159 12.9492 11.1371C12.9103 11.1153 12.879 11.0821 12.8595 11.042C12.6339 10.6677 12.3986 10.2993 12.175 9.92398C12.1128 9.81898 12.0462 9.77183 11.9179 9.77426C11.4867 9.7835 11.0555 9.78155 10.6243 9.77426C10.5048 9.77426 10.4698 9.80878 10.4722 9.92738C10.4795 10.2856 10.4693 10.6439 10.4775 11.0022C10.4805 11.1324 10.4382 11.1674 10.3123 11.1631C10.0391 11.1543 9.7654 11.1524 9.49269 11.1631C9.34929 11.1694 9.31964 11.1145 9.32207 10.9856C9.32985 10.6395 9.31867 10.2934 9.32742 9.94732C9.33082 9.81412 9.29728 9.76891 9.15679 9.77232C8.83353 9.78009 8.83305 9.77232 8.83305 9.45295C8.83305 9.24052 8.83694 9.0276 8.83305 8.81518C8.83305 8.71795 8.86659 8.69316 8.95943 8.68976C9.32644 8.67518 9.32644 8.67177 9.32644 8.30087C9.32644 8.11275 9.3211 7.92414 9.32644 7.73602C9.33033 7.62713 9.29679 7.59019 9.18353 7.59019C8.83305 7.58679 8.83305 7.58193 8.83305 7.22464C8.83305 7.03651 8.83888 6.8479 8.83305 6.65978C8.82819 6.54895 8.86318 6.51395 8.97596 6.51395C9.32742 6.5086 9.32742 6.50326 9.32742 6.14256C9.32742 5.8266 9.33082 5.51063 9.32742 5.19514C9.32742 5.08869 9.35367 5.04348 9.47033 5.0464C9.77998 5.05369 10.0896 5.05272 10.3993 5.0464C10.441 5.04306 10.4827 5.05254 10.5188 5.07356C10.5549 5.09459 10.5838 5.12615 10.6015 5.16403C10.8446 5.56945 11.0983 5.97 11.3414 6.37638C11.4007 6.4736 11.4634 6.52221 11.5844 6.52221C12.0156 6.51444 12.4468 6.51541 12.8779 6.52221C12.9965 6.52221 13.0379 6.4877 13.0325 6.36715C13.0233 6.1727 13.0325 5.97826 13.0325 5.78382L13.0272 5.78042ZM12.0866 7.59359C12.3126 7.96255 12.5197 8.30233 12.7297 8.64066C12.7875 8.73351 12.8843 8.69219 12.9635 8.68927C13.0607 8.68538 13.0247 8.59983 13.0252 8.54684C13.0286 8.27365 13.0252 8.00046 13.0252 7.72727C13.0252 7.66116 13.0379 7.59116 12.9314 7.59262C12.6626 7.59602 12.3918 7.59359 12.0866 7.59359ZM11.4094 8.69316L10.7658 7.64998C10.7075 7.55519 10.6127 7.59408 10.5344 7.59748C10.4372 7.60234 10.4771 7.68838 10.4766 7.73991C10.4727 8.01261 10.4766 8.28532 10.4766 8.55803C10.4766 8.62219 10.4591 8.69559 10.5675 8.69413C10.8358 8.69122 11.1056 8.69316 11.4094 8.69316Z" fill="#11453B"/>
    </g>
    </g>
    <defs>
    <clipPath id="clip0_1_1269">
    <rect width="22.2061" height="15.8572" fill="white" transform="translate(0.647011 0.0714111)"/>
    </clipPath>
    <clipPath id="clip1_1_1269">
    <rect width="5.84591" height="6.12056" fill="white" transform="translate(8.82958 5.04529)"/>
    </clipPath>
    </defs>
    </svg>
  </g>
  <g id='calendar'>
    <svg width="24" height="25" viewBox="0 0 24 25" fill="none" xmlns="http://www.w3.org/2000/svg">
      <path d="M12 19.5C12.1978 19.5 12.3911 19.4414 12.5556 19.3315C12.72 19.2216 12.8482 19.0654 12.9239 18.8827C12.9996 18.7 13.0194 18.4989 12.9808 18.3049C12.9422 18.1109 12.847 17.9327 12.7071 17.7929C12.5673 17.653 12.3891 17.5578 12.1951 17.5192C12.0011 17.4806 11.8 17.5004 11.6173 17.5761C11.4346 17.6518 11.2784 17.78 11.1685 17.9444C11.0586 18.1089 11 18.3022 11 18.5C11 18.7652 11.1054 19.0196 11.2929 19.2071C11.4804 19.3946 11.7348 19.5 12 19.5ZM17 19.5C17.1978 19.5 17.3911 19.4414 17.5556 19.3315C17.72 19.2216 17.8482 19.0654 17.9239 18.8827C17.9996 18.7 18.0194 18.4989 17.9808 18.3049C17.9422 18.1109 17.847 17.9327 17.7071 17.7929C17.5673 17.653 17.3891 17.5578 17.1951 17.5192C17.0011 17.4806 16.8 17.5004 16.6173 17.5761C16.4346 17.6518 16.2784 17.78 16.1685 17.9444C16.0586 18.1089 16 18.3022 16 18.5C16 18.7652 16.1054 19.0196 16.2929 19.2071C16.4804 19.3946 16.7348 19.5 17 19.5ZM17 15.5C17.1978 15.5 17.3911 15.4414 17.5556 15.3315C17.72 15.2216 17.8482 15.0654 17.9239 14.8827C17.9996 14.7 18.0194 14.4989 17.9808 14.3049C17.9422 14.1109 17.847 13.9327 17.7071 13.7929C17.5673 13.653 17.3891 13.5578 17.1951 13.5192C17.0011 13.4806 16.8 13.5004 16.6173 13.5761C16.4346 13.6518 16.2784 13.78 16.1685 13.9444C16.0586 14.1089 16 14.3022 16 14.5C16 14.7652 16.1054 15.0196 16.2929 15.2071C16.4804 15.3946 16.7348 15.5 17 15.5ZM12 15.5C12.1978 15.5 12.3911 15.4414 12.5556 15.3315C12.72 15.2216 12.8482 15.0654 12.9239 14.8827C12.9996 14.7 13.0194 14.4989 12.9808 14.3049C12.9422 14.1109 12.847 13.9327 12.7071 13.7929C12.5673 13.653 12.3891 13.5578 12.1951 13.5192C12.0011 13.4806 11.8 13.5004 11.6173 13.5761C11.4346 13.6518 11.2784 13.78 11.1685 13.9444C11.0586 14.1089 11 14.3022 11 14.5C11 14.7652 11.1054 15.0196 11.2929 15.2071C11.4804 15.3946 11.7348 15.5 12 15.5ZM19 3.5H18V2.5C18 2.23478 17.8946 1.98043 17.7071 1.79289C17.5196 1.60536 17.2652 1.5 17 1.5C16.7348 1.5 16.4804 1.60536 16.2929 1.79289C16.1054 1.98043 16 2.23478 16 2.5V3.5H8V2.5C8 2.23478 7.89464 1.98043 7.70711 1.79289C7.51957 1.60536 7.26522 1.5 7 1.5C6.73478 1.5 6.48043 1.60536 6.29289 1.79289C6.10536 1.98043 6 2.23478 6 2.5V3.5H5C4.20435 3.5 3.44129 3.81607 2.87868 4.37868C2.31607 4.94129 2 5.70435 2 6.5V20.5C2 21.2956 2.31607 22.0587 2.87868 22.6213C3.44129 23.1839 4.20435 23.5 5 23.5H19C19.7956 23.5 20.5587 23.1839 21.1213 22.6213C21.6839 22.0587 22 21.2956 22 20.5V6.5C22 5.70435 21.6839 4.94129 21.1213 4.37868C20.5587 3.81607 19.7956 3.5 19 3.5ZM20 20.5C20 20.7652 19.8946 21.0196 19.7071 21.2071C19.5196 21.3946 19.2652 21.5 19 21.5H5C4.73478 21.5 4.48043 21.3946 4.29289 21.2071C4.10536 21.0196 4 20.7652 4 20.5V11.5H20V20.5ZM20 9.5H4V6.5C4 6.23478 4.10536 5.98043 4.29289 5.79289C4.48043 5.60536 4.73478 5.5 5 5.5H6V6.5C6 6.76522 6.10536 7.01957 6.29289 7.20711C6.48043 7.39464 6.73478 7.5 7 7.5C7.26522 7.5 7.51957 7.39464 7.70711 7.20711C7.89464 7.01957 8 6.76522 8 6.5V5.5H16V6.5C16 6.76522 16.1054 7.01957 16.2929 7.20711C16.4804 7.39464 16.7348 7.5 17 7.5C17.2652 7.5 17.5196 7.39464 17.7071 7.20711C17.8946 7.01957 18 6.76522 18 6.5V5.5H19C19.2652 5.5 19.5196 5.60536 19.7071 5.79289C19.8946 5.98043 20 6.23478 20 6.5V9.5ZM7 15.5C7.19778 15.5 7.39112 15.4414 7.55557 15.3315C7.72002 15.2216 7.84819 15.0654 7.92388 14.8827C7.99957 14.7 8.01937 14.4989 7.98079 14.3049C7.9422 14.1109 7.84696 13.9327 7.70711 13.7929C7.56725 13.653 7.38907 13.5578 7.19509 13.5192C7.00111 13.4806 6.80004 13.5004 6.61732 13.5761C6.43459 13.6518 6.27841 13.78 6.16853 13.9444C6.05865 14.1089 6 14.3022 6 14.5C6 14.7652 6.10536 15.0196 6.29289 15.2071C6.48043 15.3946 6.73478 15.5 7 15.5ZM7 19.5C7.19778 19.5 7.39112 19.4414 7.55557 19.3315C7.72002 19.2216 7.84819 19.0654 7.92388 18.8827C7.99957 18.7 8.01937 18.4989 7.98079 18.3049C7.9422 18.1109 7.84696 17.9327 7.70711 17.7929C7.56725 17.653 7.38907 17.5578 7.19509 17.5192C7.00111 17.4806 6.80004 17.5004 6.61732 17.5761C6.43459 17.6518 6.27841 17.78 6.16853 17.9444C6.05865 18.1089 6 18.3022 6 18.5C6 18.7652 6.10536 19.0196 6.29289 19.2071C6.48043 19.3946 6.73478 19.5 7 19.5Z" fill="#8D8E8D"/>
</svg>
  </g>
  <g id='chev'>
    <svg xmlns="http://www.w3.org/2000/svg" width="24" height="25" viewBox="0 0 24 25" fill="none">
    <path d="M10.59 7.01171L14.83 11.3017C14.9237 11.3947 14.9981 11.5053 15.0489 11.6271C15.0997 11.749 15.1258 11.8797 15.1258 12.0117C15.1258 12.1437 15.0997 12.2744 15.0489 12.3963C14.9981 12.5181 14.9237 12.6287 14.83 12.7217L10.59 16.9617C10.497 17.0554 10.3864 17.1298 10.2646 17.1806C10.1427 17.2314 10.012 17.2575 9.88 17.2575C9.74798 17.2575 9.61728 17.2314 9.49542 17.1806C9.37356 17.1298 9.26296 17.0554 9.17 16.9617C8.98374 16.7743 8.8792 16.5209 8.8792 16.2567C8.8792 15.9925 8.98374 15.7391 9.17 15.5517L12.71 12.0117L9.17 8.47171C8.98525 8.28545 8.8811 8.03405 8.88 7.77171C8.87923 7.6401 8.90446 7.50964 8.95422 7.3878C9.00399 7.26596 9.07731 7.15515 9.17 7.06171C9.25961 6.96463 9.36758 6.88628 9.48765 6.83117C9.60773 6.77607 9.73754 6.7453 9.86957 6.74065C10.0016 6.736 10.1333 6.75756 10.2569 6.80409C10.3806 6.85061 10.4938 6.92118 10.59 7.01171Z" fill="#898989"/>
  </svg>
  </g>
  <g id='notif'>
    <svg width="16" height="20" viewBox="0 0 16 20" fill="none" xmlns="http://www.w3.org/2000/svg">
    <path id="Vector" d="M14 11.2163V8.03625C13.9986 6.61938 13.4958 5.24872 12.5806 4.16703C11.6655 3.08534 10.3971 2.3624 9 2.12626V1.03625C9 0.771038 8.89464 0.516684 8.70711 0.329148C8.51957 0.141612 8.26522 0.0362549 8 0.0362549C7.73478 0.0362549 7.48043 0.141612 7.29289 0.329148C7.10536 0.516684 7 0.771038 7 1.03625V2.12626C5.60294 2.3624 4.33452 3.08534 3.41939 4.16703C2.50425 5.24872 2.00144 6.61938 2 8.03625V11.2163C1.41645 11.4226 0.910998 11.8043 0.552938 12.3092C0.194879 12.8141 0.00173951 13.4173 0 14.0363V16.0363C0 16.3015 0.105357 16.5558 0.292893 16.7434C0.48043 16.9309 0.734784 17.0363 1 17.0363H4.14C4.37028 17.8836 4.873 18.6317 5.5706 19.165C6.26819 19.6983 7.1219 19.9873 8 19.9873C8.8781 19.9873 9.73181 19.6983 10.4294 19.165C11.127 18.6317 11.6297 17.8836 11.86 17.0363H15C15.2652 17.0363 15.5196 16.9309 15.7071 16.7434C15.8946 16.5558 16 16.3015 16 16.0363V14.0363C15.9983 13.4173 15.8051 12.8141 15.4471 12.3092C15.089 11.8043 14.5835 11.4226 14 11.2163ZM4 8.03625C4 6.97539 4.42143 5.95797 5.17157 5.20783C5.92172 4.45768 6.93913 4.03625 8 4.03625C9.06087 4.03625 10.0783 4.45768 10.8284 5.20783C11.5786 5.95797 12 6.97539 12 8.03625V11.0363H4V8.03625ZM8 18.0363C7.65097 18.0341 7.30857 17.9407 7.00683 17.7653C6.70509 17.5899 6.45451 17.3385 6.28 17.0363H9.72C9.54549 17.3385 9.29491 17.5899 8.99317 17.7653C8.69143 17.9407 8.34903 18.0341 8 18.0363ZM14 15.0363H2V14.0363C2 13.771 2.10536 13.5167 2.29289 13.3291C2.48043 13.1416 2.73478 13.0363 3 13.0363H13C13.2652 13.0363 13.5196 13.1416 13.7071 13.3291C13.8946 13.5167 14 13.771 14 14.0363V15.0363Z" fill="#8B8B8B"/>
  </svg>
</g>
<g id='step1'>
  <svg width="50" height="222" viewBox="0 0 50 222" fill="none" xmlns="http://www.w3.org/2000/svg">
<path d="M27.9477 211C27.9477 216.891 32.7233 221.667 38.6144 221.667C44.5054 221.667 49.281 216.891 49.281 211C49.281 205.109 44.5054 200.333 38.6144 200.333C32.7233 200.333 27.9477 205.109 27.9477 211ZM38.6144 0H26.6144V4H38.6144V0ZM0.61438 26V187H4.61438V26H0.61438ZM26.6144 213H38.6144V209H26.6144V213ZM0.61438 187C0.61438 201.359 12.255 213 26.6144 213V209C14.4641 209 4.61438 199.15 4.61438 187H0.61438ZM26.6144 0C12.255 0 0.61438 11.6406 0.61438 26H4.61438C4.61438 13.8497 14.4641 4 26.6144 4V0Z" fill="#D9EBCD"/>
<mask id="mask0_4766_462" style="mask-type:alpha" maskUnits="userSpaceOnUse" x="0" y="0" width="50" height="222">
<path d="M27.9477 211C27.9477 216.891 32.7233 221.667 38.6144 221.667C44.5054 221.667 49.281 216.891 49.281 211C49.281 205.109 44.5054 200.333 38.6144 200.333C32.7233 200.333 27.9477 205.109 27.9477 211ZM38.6144 0H26.6144V4H38.6144V0ZM0.61438 26V187H4.61438V26H0.61438ZM26.6144 213H38.6144V209H26.6144V213ZM0.61438 187C0.61438 201.359 12.255 213 26.6144 213V209C14.4641 209 4.61438 199.15 4.61438 187H0.61438ZM26.6144 0C12.255 0 0.61438 11.6406 0.61438 26H4.61438C4.61438 13.8497 14.4641 4 26.6144 4V0Z" fill="#D9EBCD"/>
</mask>
<g mask="url(#mask0_4766_462)">
<rect x="47.6144" y="-6" width="5" height="13" fill="#11453B"/>
</g>
</svg>
</g>
<g id='step2'>
  <svg width="302" height="245" viewBox="0 0 302 245" fill="none" xmlns="http://www.w3.org/2000/svg">
  <path d="M22.281 234C22.281 239.891 17.5054 244.667 11.6144 244.667C5.72336 244.667 0.947723 239.891 0.947723 234C0.947723 228.109 5.72336 223.333 11.6144 223.333C17.5054 223.333 22.281 228.109 22.281 234ZM11.6144 0H275.614V4H11.6144V0ZM301.614 26V210H297.614V26H301.614ZM275.614 236H11.6144V232H275.614V236ZM301.614 210C301.614 224.359 289.974 236 275.614 236V232C287.765 232 297.614 222.15 297.614 210H301.614ZM275.614 0C289.974 0 301.614 11.6406 301.614 26H297.614C297.614 13.8497 287.765 4 275.614 4V0Z" fill="#D9EBCD"/>
  <mask id="mask0_4766_493" style="mask-type:alpha" maskUnits="userSpaceOnUse" x="0" y="0" width="302" height="245">
  <path d="M22.281 234C22.281 239.891 17.5054 244.667 11.6144 244.667C5.72336 244.667 0.947723 239.891 0.947723 234C0.947723 228.109 5.72336 223.333 11.6144 223.333C17.5054 223.333 22.281 228.109 22.281 234ZM11.6144 0H275.614V4H11.6144V0ZM301.614 26V210H297.614V26H301.614ZM275.614 236H11.6144V232H275.614V236ZM301.614 210C301.614 224.359 289.974 236 275.614 236V232C287.765 232 297.614 222.15 297.614 210H301.614ZM275.614 0C289.974 0 301.614 11.6406 301.614 26H297.614C297.614 13.8497 287.765 4 275.614 4V0Z" fill="#D9EBCD"/>
  </mask>
  <g mask="url(#mask0_4766_493)">
</g>
</svg>

</g>
</svg>

