<svg width="272" height="151" viewBox="0 0 272 151" fill="none" xmlns="http://www.w3.org/2000/svg">
<g clip-path="url(#clip0_101_2)">
<path d="M271.998 0H-0.000253677V73.3507C-8.22232 75.6406 -16.19 78.5945 -23.8467 82.3398L-13.2657 150.702C34.634 127.272 94.7048 134.812 153.092 142.14C204.715 148.62 255.021 154.934 294.435 139.532L283.854 71.1703C280.003 72.6751 276.048 73.9727 271.998 75.083V0Z" fill="#11453B"/>
<g opacity="0.5">
<path d="M271.998 3.05176e-05H-0.000253677V73.3507C-8.22232 75.6406 -16.19 78.5945 -23.8467 82.3398L-13.2657 150.702C34.634 127.272 94.7048 134.812 153.092 142.14C204.715 148.62 255.021 154.934 294.435 139.532L283.854 71.1703C280.003 72.6751 276.048 73.9727 271.998 75.083V3.05176e-05Z" fill="#11453B"/>
<path fill-rule="evenodd" clip-rule="evenodd" d="M272.413 88.8573C193.995 106.307 85.4687 30.2438 2.09808e-05 56.8105V118.436C85.4687 91.8697 193.995 167.933 272.413 150.483V88.8573ZM272.413 -12.2182C193.995 5.23128 85.4687 -70.8799 2.09808e-05 -44.3131V17.3129C85.4687 -9.25387 193.995 66.8572 272.413 49.4077V-12.2182ZM272.413 190.574C193.995 208.023 85.4687 131.96 2.09808e-05 158.527V220.153C85.4687 193.586 193.995 269.649 272.413 252.2V190.574Z" fill="#175B4E"/>
</g>
</g>
<defs>
<clipPath id="clip0_101_2">
<rect width="272" height="151" fill="white"/>
</clipPath>
</defs>
</svg>
