<svg width="18" height="18" viewBox="0 0 18 18" fill="none" xmlns="http://www.w3.org/2000/svg">
<path d="M8.37244 4.63582C8.63102 4.59618 8.89226 4.57647 9.15386 4.57684C11.4981 4.57684 13.7023 6.26501 14.985 8.99999C14.7889 9.4162 14.5673 9.81996 14.3216 10.209C14.2436 10.3297 14.2026 10.4707 14.2036 10.6144C14.2053 10.7753 14.2595 10.9313 14.358 11.0584C14.4566 11.1856 14.594 11.2771 14.7494 11.3188C14.9048 11.3606 15.0695 11.3504 15.2186 11.2898C15.3676 11.2291 15.4927 11.1214 15.5748 10.983C15.9183 10.4434 16.2166 9.87626 16.4668 9.2875C16.5064 9.19551 16.5267 9.09643 16.5267 8.99631C16.5267 8.89618 16.5064 8.7971 16.4668 8.70512C14.9777 5.24769 12.1763 3.10246 9.15386 3.10246C8.80787 3.10072 8.46244 3.13033 8.12179 3.19092C8.02498 3.20738 7.93236 3.24275 7.84922 3.295C7.76608 3.34725 7.69404 3.41537 7.63723 3.49546C7.58041 3.57555 7.53992 3.66605 7.51808 3.76179C7.49624 3.85753 7.49347 3.95663 7.50992 4.05344C7.52638 4.15025 7.56175 4.24287 7.614 4.32601C7.66625 4.40915 7.73437 4.48119 7.81446 4.538C7.89455 4.59482 7.98505 4.63531 8.08079 4.65715C8.17653 4.67899 8.27563 4.68176 8.37244 4.66531V4.63582ZM3.04254 1.84186C2.97381 1.77313 2.89221 1.7186 2.8024 1.68141C2.7126 1.64421 2.61634 1.62506 2.51914 1.62506C2.42193 1.62506 2.32568 1.64421 2.23587 1.68141C2.14607 1.7186 2.06447 1.77313 1.99573 1.84186C1.85692 1.98068 1.77893 2.16895 1.77893 2.36527C1.77893 2.56158 1.85692 2.74986 1.99573 2.88867L4.28103 5.1666C3.23832 6.1703 2.40845 7.37374 1.84092 8.70512C1.80033 8.79812 1.77938 8.89851 1.77938 8.99999C1.77938 9.10147 1.80033 9.20186 1.84092 9.29487C3.33005 12.7523 6.13138 14.8975 9.15386 14.8975C10.4787 14.8884 11.7722 14.4939 12.8767 13.7622L15.2652 16.1581C15.3337 16.2272 15.4152 16.2821 15.5051 16.3195C15.5949 16.3569 15.6913 16.3762 15.7886 16.3762C15.8859 16.3762 15.9823 16.3569 16.0721 16.3195C16.1619 16.2821 16.2435 16.2272 16.312 16.1581C16.3811 16.0896 16.4359 16.0081 16.4734 15.9182C16.5108 15.8284 16.5301 15.732 16.5301 15.6347C16.5301 15.5374 16.5108 15.441 16.4734 15.3512C16.4359 15.2614 16.3811 15.1798 16.312 15.1113L3.04254 1.84186ZM7.73108 8.61665L9.5372 10.4228C9.41261 10.4585 9.28347 10.4759 9.15386 10.4744C8.76283 10.4744 8.38782 10.319 8.11132 10.0425C7.83482 9.76604 7.67948 9.39102 7.67948 8.99999C7.67797 8.87038 7.69535 8.74125 7.73108 8.61665ZM9.15386 13.4231C6.80959 13.4231 4.60539 11.735 3.33005 8.99999C3.80634 7.94857 4.48233 6.99968 5.32047 6.20604L6.6253 7.52561C6.31881 8.08499 6.20196 8.72866 6.29228 9.36008C6.3826 9.99149 6.67521 10.5766 7.12624 11.0276C7.57726 11.4786 8.16236 11.7713 8.79378 11.8616C9.42519 11.9519 10.0689 11.835 10.6282 11.5286L11.8004 12.6859C10.9976 13.1584 10.0852 13.4126 9.15386 13.4231Z" fill="#DBE8CE"/>
</svg>
