<svg width="126" height="33" viewBox="0 0 126 33" fill="none" xmlns="http://www.w3.org/2000/svg">
<g clip-path="url(#clip0_1_1321)">
<path d="M35.902 18.1801C35.8547 20.636 34.2727 22.2658 31.6747 22.2658C30.0219 22.2658 29.006 21.4628 29.006 20.1873C29.006 18.6762 30.1868 17.8258 32.265 17.8258H35.9019V18.1801H35.902ZM41.9475 21.4628C41.1682 21.4628 40.7904 21.2736 40.7904 20.329V13.9292C40.7904 9.58381 37.8623 7.3407 32.8086 7.3407C28.0144 7.3407 24.7794 9.65476 24.4252 13.1734H29.2189C29.4314 11.8512 30.7305 10.9775 32.6667 10.9775C34.7448 10.9775 35.9021 12.0166 35.9021 13.646V14.5199H32.3124C26.8807 14.5199 24.0001 16.6925 24.0001 20.5413C24.0001 23.9896 26.8102 25.8549 30.7305 25.8549C33.5406 25.8549 35.3827 24.6981 36.6341 22.6909C36.6105 24.4148 37.4135 25.6426 39.9877 25.6426H42.5142V21.4628H41.9477H41.9475Z" fill="white"/>
<path d="M44.4507 11.7332H53.0937L44.0492 22.2657V25.6429H60.2024V21.4629H50.7323L59.7772 10.9302V7.55334H44.4507V11.7332Z" fill="white"/>
<path d="M61.6666 25.6425H66.6731V7.55304H61.6666V25.6425Z" fill="white"/>
<path d="M64.1694 5.61684C65.7756 5.61684 67.0505 4.41227 67.0505 2.83022C67.0505 1.22416 65.7755 0.0195923 64.1694 0.0195923C62.5402 0.0195923 61.2883 1.22416 61.2883 2.83022C61.2883 4.41227 62.5402 5.61684 64.1694 5.61684Z" fill="white"/>
<path fill-rule="evenodd" clip-rule="evenodd" d="M77.9849 21.817C75.2689 21.817 73.5686 19.668 73.5686 16.5508C73.5686 13.5042 75.2689 11.3788 77.9849 11.3788C80.6769 11.3788 82.4481 13.5042 82.4481 16.5508C82.4481 19.668 80.6768 21.817 77.9849 21.817ZM79.0707 7.34081C76.4971 7.34081 74.6785 8.49796 73.4981 10.0564V7.55309H68.6798V32.6799H73.6391V23.3522C74.7964 24.8395 76.5916 25.855 79.0949 25.855C83.959 25.855 87.4783 22.2658 87.4783 16.6218C87.4783 10.9301 83.9592 7.31716 79.0709 7.34081H79.0707Z" fill="white"/>
<path d="M100.065 18.1801C100.018 20.636 98.4355 22.2658 95.838 22.2658C94.1847 22.2658 93.1692 21.4628 93.1692 20.1873C93.1692 18.6762 94.3501 17.8258 96.4282 17.8258H100.065V18.1801H100.065ZM106.111 21.4628C105.331 21.4628 104.954 21.2736 104.954 20.329V13.9292C104.954 9.58381 102.026 7.3407 96.9477 7.3407C92.1777 7.3407 88.9426 9.65476 88.588 13.1734H93.3585C93.5709 11.8512 94.8933 10.9775 96.8063 10.9775C98.8844 10.9775 100.065 12.0166 100.065 13.646V14.5199H96.4757C91.044 14.5199 88.1633 16.6925 88.1633 20.5413C88.1633 23.9896 90.9731 25.8549 94.8933 25.8549C97.7039 25.8549 99.5219 24.6981 100.797 22.6909C100.75 24.4148 101.577 25.6426 104.127 25.6426H106.677V21.4628H106.111Z" fill="white"/>
<path d="M112.841 25.7369L112.392 26.9415C111.896 28.1693 111.471 28.4999 110.196 28.4999H107.457V32.6797H112.274C115.084 32.6797 116.006 31.1924 117.139 28.2166L125.168 7.55341H119.855L115.557 20.4235L111.164 7.55341H105.874L112.841 25.7369H112.841Z" fill="white"/>
<path fill-rule="evenodd" clip-rule="evenodd" d="M22.3939 20.7071C16.1827 22.1004 7.58694 16.0785 0.833008 18.1802V23.0448C7.58694 20.943 16.1827 26.9651 22.3939 25.5717V20.7071Z" fill="white"/>
<path fill-rule="evenodd" clip-rule="evenodd" d="M22.3939 12.6542C16.1827 14.0474 7.58694 8.02545 0.833008 10.1271V14.9922C7.58694 12.8901 16.1827 18.912 22.3939 17.5424V12.6541V12.6542Z" fill="white"/>
<path fill-rule="evenodd" clip-rule="evenodd" d="M22.3939 4.67222C16.1827 6.04188 7.58694 0.0198491 0.833008 2.12176V7.00994C7.58694 4.90826 16.1827 10.9303 22.3939 9.53698V4.67234V4.67222Z" fill="white"/>
</g>
<defs>
<clipPath id="clip0_1_1321">
<rect width="124.335" height="32.6604" fill="white" transform="translate(0.833008 0.0195312)"/>
</clipPath>
</defs>
</svg>
